<svg xmlns="http://www.w3.org/2000/svg" width="48.844" height="39.844" viewBox="0 0 48.844 39.844">
  <defs>
    <style>
      .cls-1 {
        fill: #e8663c;
        fill-rule: evenodd;
      }
    </style>
  </defs>
  <path id="icon" class="cls-1" d="M48.19,9.146L40.457,1.414a2.3,2.3,0,0,0-3.256,0L19.079,19.536l-7.417-7.417a2.3,2.3,0,0,0-3.256,0L0.674,19.852a2.3,2.3,0,0,0,0,3.256L9.416,31.85a2.3,2.3,0,0,0,.274.331l7.732,7.732a2.3,2.3,0,0,0,3.256,0L48.19,12.4A2.3,2.3,0,0,0,48.19,9.146Z" transform="translate(-0.031 -0.75)"/>
</svg>
